<mxfile host="app.diagrams.net" modified="2024-03-03T17:32:27.185Z" agent="Mozilla/5.0 (Macintosh; Intel Mac OS X 10_15_7) AppleWebKit/537.36 (KHTML, like Gecko) Chrome/122.0.0.0 Safari/537.36" etag="KHO9vTKfEZoXFLoS9uu2" version="24.0.1" type="github">
  <diagram name="‫صفحه - 1‬" id="UkXKq7JKfws8zfbLTdqT">
    <mxGraphModel dx="1990" dy="1097" grid="1" gridSize="10" guides="1" tooltips="1" connect="1" arrows="1" fold="1" page="1" pageScale="1" pageWidth="827" pageHeight="1169" math="0" shadow="0">
      <root>
        <mxCell id="0" />
        <mxCell id="1" parent="0" />
        <mxCell id="SWO7cad0wgNoK_XDOkn1-2" value="&lt;h1&gt;Technical Charts&lt;/h1&gt;" style="rounded=0;whiteSpace=wrap;html=1;" vertex="1" parent="1">
          <mxGeometry x="316" y="40" width="196" height="110" as="geometry" />
        </mxCell>
      </root>
    </mxGraphModel>
  </diagram>
</mxfile>
